<?xml version="1.0" encoding="utf-8"?>
<!-- Generator: Adobe Illustrator 18.1.0, SVG Export Plug-In . SVG Version: 6.00 Build 0)  -->
<!DOCTYPE svg PUBLIC "-//W3C//DTD SVG 1.1//EN" "http://www.w3.org/Graphics/SVG/1.1/DTD/svg11.dtd">
<svg version="1.1" id="barcamp_logo" xmlns="http://www.w3.org/2000/svg" xmlns:xlink="http://www.w3.org/1999/xlink" x="0px"
	 y="0px" viewBox="0 0 858 187.5" enable-background="new 0 0 858 187.5" xml:space="preserve">
<g>
	<g>
		<path fill="#333333" d="M233.1,27.7v40c3.7-3.6,7.6-6.3,11.9-8.1c4.2-1.8,8.8-2.7,13.6-2.7c10.5,0,19.5,4,26.8,11.9
			c7.4,8,11,18.1,11,30.6c0,12-3.8,22-11.4,30.1c-7.6,8.1-16.6,12.1-27.1,12.1c-4.6,0-9-0.8-13-2.5c-4-1.6-8-4.3-11.9-8.1v8.5h-20.2
			V27.7H233.1z M254.3,75.4c-6.4,0-11.6,2.2-15.8,6.5c-4.2,4.4-6.3,10.1-6.3,17.1c0,7.2,2.1,13,6.3,17.4c4.2,4.4,9.5,6.7,15.8,6.7
			c6.2,0,11.4-2.3,15.6-6.8c4.2-4.5,6.3-10.3,6.3-17.3c0-6.9-2.1-12.6-6.2-17.1C265.9,77.6,260.6,75.4,254.3,75.4z"/>
		<path fill="#333333" d="M366.5,58.9h20.2v80.7h-20.2v-8.5c-4,3.7-7.9,6.4-11.9,8.1s-8.3,2.5-12.9,2.5c-10.4,0-19.5-4-27.1-12.1
			c-7.6-8.1-11.4-18.1-11.4-30.1c0-12.4,3.7-22.6,11.1-30.6c7.4-8,16.3-11.9,26.9-11.9c4.8,0,9.4,0.9,13.7,2.7
			c4.3,1.8,8.2,4.5,11.8,8.1V58.9z M345.2,75.4c-6.3,0-11.5,2.2-15.6,6.7c-4.1,4.4-6.2,10.1-6.2,17.1c0,7,2.1,12.7,6.3,17.3
			c4.2,4.5,9.4,6.8,15.6,6.8c6.4,0,11.6-2.2,15.8-6.7s6.3-10.2,6.3-17.4c0-7-2.1-12.7-6.3-17.1C356.9,77.5,351.6,75.4,345.2,75.4z"
			/>
		<path fill="#333333" d="M399.3,58.9h17.5v10.2c1.9-4,4.4-7,7.5-9.1c3.1-2.1,6.5-3.1,10.2-3.1c2.6,0,5.3,0.7,8.2,2.1l-6.3,17.4
			c-2.4-1.2-4.3-1.8-5.8-1.8c-3.1,0-5.7,1.9-7.9,5.8c-2.1,3.9-3.2,11.4-3.2,22.7l0.1,3.9v32.6h-20.2V58.9z"/>
		<path fill="#BA3326" d="M522.3,75.6l-8.2,5.1c-7.1-9.4-16.9-14.1-29.2-14.1c-9.9,0-18,3.2-24.6,9.5c-6.5,6.3-9.8,14-9.8,23
			c0,5.9,1.5,11.4,4.5,16.6c3,5.2,7.1,9.2,12.3,12.1c5.2,2.9,11.1,4.3,17.6,4.3c11.9,0,21.6-4.7,29.1-14.1l8.2,5.4
			c-3.9,5.8-9.1,10.3-15.6,13.5c-6.5,3.2-13.9,4.8-22.3,4.8c-12.8,0-23.4-4-31.8-12.1c-8.4-8.1-12.6-18-12.6-29.6
			c0-7.8,2-15.1,5.9-21.7c3.9-6.7,9.3-11.9,16.2-15.7c6.9-3.8,14.6-5.6,23.1-5.6c5.3,0,10.5,0.8,15.5,2.4c5,1.6,9.2,3.7,12.7,6.3
			C517,68.3,519.9,71.6,522.3,75.6z"/>
		<path fill="#BA3326" d="M612.6,58.9v80.7h-10.4v-13.9c-4.3,5.3-9.2,9.3-14.6,11.9c-5.4,2.6-11.3,4-17.8,4
			c-11.4,0-21.2-4.1-29.2-12.4c-8.1-8.3-12.1-18.3-12.1-30.2c0-11.6,4.1-21.5,12.2-29.8c8.2-8.2,18-12.4,29.4-12.4
			c6.6,0,12.6,1.4,18,4.2c5.4,2.8,10.1,7,14.1,12.7V58.9H612.6z M571,66.9c-5.8,0-11.1,1.4-16,4.3c-4.9,2.8-8.8,6.8-11.7,11.9
			c-2.9,5.1-4.3,10.5-4.3,16.3c0,5.7,1.5,11.1,4.4,16.3c2.9,5.2,6.8,9.2,11.7,12.1c4.9,2.9,10.2,4.3,15.8,4.3
			c5.7,0,11.1-1.4,16.1-4.3c5.1-2.9,9-6.7,11.7-11.6c2.7-4.9,4.1-10.4,4.1-16.5c0-9.3-3.1-17.1-9.2-23.4C587.5,70,580,66.9,571,66.9
			z"/>
		<path fill="#BA3326" d="M629.3,58.9h10.4v14c3.6-5.1,7.3-8.9,11.2-11.3c5.3-3.1,10.8-4.7,16.6-4.7c3.9,0,7.6,0.8,11.2,2.3
			c3.5,1.5,6.4,3.6,8.6,6.1c2.2,2.5,4.2,6.2,5.8,10.9c3.5-6.3,7.8-11.1,13-14.4c5.2-3.3,10.8-4.9,16.8-4.9c5.6,0,10.5,1.4,14.8,4.2
			c4.3,2.8,7.5,6.7,9.5,11.8c2.1,5,3.1,12.6,3.1,22.7v44h-10.6v-44c0-8.6-0.6-14.6-1.9-17.8c-1.2-3.2-3.3-5.8-6.3-7.8
			c-3-2-6.6-3-10.7-3c-5,0-9.6,1.5-13.8,4.4c-4.2,3-7.2,6.9-9.2,11.9c-1.9,4.9-2.9,13.2-2.9,24.7v31.6h-10.4V98.3
			c0-9.7-0.6-16.3-1.8-19.8c-1.2-3.5-3.3-6.3-6.4-8.4c-3-2.1-6.6-3.2-10.8-3.2c-4.8,0-9.3,1.4-13.5,4.3c-4.2,2.9-7.3,6.8-9.3,11.7
			c-2,4.9-3,12.4-3,22.5v34.2h-10.4V58.9z"/>
		<path fill="#BA3326" d="M766.3,58.9h10.4v14.8c4.1-5.6,8.8-9.9,14.1-12.7c5.3-2.8,11.3-4.2,17.9-4.2c11.5,0,21.3,4.1,29.4,12.4
			c8.1,8.2,12.2,18.2,12.2,29.8c0,11.9-4,21.9-12.1,30.2c-8.1,8.3-17.8,12.4-29.2,12.4c-6.4,0-12.3-1.3-17.7-4
			c-5.4-2.7-10.2-6.7-14.6-11.9v43.5h-10.4V58.9z M807.9,66.9c-9,0-16.5,3.1-22.6,9.4c-6.1,6.3-9.2,14-9.2,23.4
			c0,6.1,1.4,11.6,4.1,16.5c2.7,4.9,6.6,8.7,11.7,11.6c5.1,2.9,10.5,4.3,16.1,4.3c5.6,0,10.8-1.4,15.7-4.3
			c4.9-2.9,8.8-6.9,11.7-12.1c2.9-5.2,4.4-10.6,4.4-16.3c0-5.7-1.4-11.1-4.3-16.3c-2.9-5.1-6.8-9.1-11.6-11.9S813.7,66.9,807.9,66.9
			z"/>
	</g>
	<g>
		<g>
			<path fill="#666666" d="M575.7,21.3h4.4c1.8,0,3.1,0.2,4.1,0.6c1,0.4,1.7,1.1,2.3,1.9c0.6,0.9,0.8,1.8,0.8,2.9
				c0,1-0.2,1.9-0.7,2.7c-0.5,0.8-1.2,1.5-2.1,2c1.2,0.4,2.1,0.9,2.7,1.4c0.6,0.5,1.1,1.2,1.5,1.9c0.4,0.8,0.5,1.6,0.5,2.5
				c0,1.8-0.7,3.3-2,4.6c-1.3,1.2-3.1,1.9-5.3,1.9h-6.2V21.3z M577.9,23.5v7.2h1.3c1.6,0,2.7-0.1,3.4-0.4c0.7-0.3,1.3-0.7,1.7-1.4
				c0.4-0.6,0.6-1.3,0.6-2.1c0-1-0.4-1.8-1.1-2.4s-1.9-0.9-3.4-0.9H577.9z M577.9,32.9v8.6h2.8c1.6,0,2.8-0.2,3.6-0.5
				s1.4-0.8,1.8-1.5c0.5-0.7,0.7-1.4,0.7-2.2c0-1-0.3-1.9-1-2.6c-0.7-0.7-1.5-1.3-2.7-1.5c-0.8-0.2-2.1-0.3-4-0.3H577.9z"/>
			<path fill="#666666" d="M601.2,21.3h2.2v22.4h-2.2V21.3z"/>
			<path fill="#666666" d="M616.7,21.3h4.5c2.5,0,4.2,0.1,5.1,0.3c1.3,0.3,2.4,1,3.2,2c0.8,1,1.3,2.2,1.3,3.7c0,1.2-0.3,2.3-0.9,3.2
				c-0.6,0.9-1.4,1.6-2.5,2.1c-1.1,0.5-2.5,0.7-4.4,0.7l8.1,10.4h-2.8l-8.1-10.4H619v10.4h-2.2V21.3z M619,23.5v7.6l3.9,0
				c1.5,0,2.6-0.1,3.3-0.4s1.3-0.7,1.7-1.4s0.6-1.3,0.6-2.1c0-0.8-0.2-1.4-0.6-2.1s-0.9-1.1-1.6-1.3s-1.8-0.4-3.3-0.4H619z"/>
			<path fill="#666666" d="M642.1,43.7l3.2-22.4h0.4l9.1,18.4l9-18.4h0.4l3.2,22.4h-2.2l-2.2-16l-7.9,16h-0.6l-8-16.2l-2.2,16.2
				H642.1z"/>
			<path fill="#666666" d="M679.5,21.3h2.2v22.4h-2.2V21.3z"/>
			<path fill="#666666" d="M695,43.7V21.3h0.5l14.9,17.2V21.3h2.2v22.4h-0.5l-14.8-17v17H695z"/>
			<path fill="#666666" d="M747.5,25.1l-1.7,1.6c-1.3-1.2-2.6-2.2-4.1-2.8c-1.5-0.6-2.9-1-4.4-1c-1.8,0-3.4,0.4-5,1.3
				s-2.8,2-3.7,3.5c-0.9,1.5-1.3,3-1.3,4.7c0,1.7,0.5,3.3,1.4,4.8c0.9,1.5,2.2,2.7,3.8,3.6c1.6,0.9,3.3,1.3,5.2,1.3
				c2.3,0,4.3-0.7,5.9-2s2.5-3,2.8-5.1h-7.2V33h9.7c0,3.5-1.1,6.2-3.1,8.3c-2,2-4.8,3.1-8.2,3.1c-4.1,0-7.4-1.4-9.9-4.2
				c-1.9-2.2-2.8-4.7-2.8-7.6c0-2.1,0.5-4.1,1.6-5.9c1.1-1.8,2.5-3.3,4.4-4.3c1.9-1,4-1.5,6.3-1.5c1.9,0,3.7,0.3,5.4,1
				S745.9,23.5,747.5,25.1z"/>
			<path fill="#666666" d="M760.7,21.3h2.2v9.4h11.4v-9.4h2.2v22.4h-2.2V32.9H763v10.8h-2.2V21.3z"/>
			<path fill="#666666" d="M798.9,21.3l10.5,22.4h-2.4l-3.5-7.4h-9.7l-3.5,7.4h-2.5l10.6-22.4H798.9z M798.6,26.1l-3.8,8.1h7.7
				L798.6,26.1z"/>
			<path fill="#666666" d="M819.9,43.7l3.2-22.4h0.4l9.1,18.4l9-18.4h0.4l3.2,22.4H843l-2.2-16l-7.9,16h-0.6l-8-16.2l-2.2,16.2
				H819.9z"/>
		</g>
	</g>
	<path fill="#BA3326" d="M91,67.9c10.2-3.4,10.3-15.6,5.5-21.9c-6.4-8.4-21.9-6.6-32.3-4.2C66.9,35.6,72,27,81.6,25.6
		c9.5-1.4,19,2.8,27.4,5.5c7.5,2.4,20.6,5.3,25.8-1.8c1.5-3-3.4-5.3-7.7-7.2c-4.3-1.9-8.8-3.7-13.6-4.9
		C215-1,222.3,157.4,113.9,137.1c-7.8-1.5-15.4-3.7-22.7-6.2c10.1,0.4,20.9-0.6,28.8-5.6c6.8-4.3,10.2-13-1.3-14.8
		c-10.3-1.6-21.3,3.3-31.3,4.1c-12.7,1.1-23.5,1.5-30.9-5.7c5.6-0.6,9.9-1.8,12-3.1c3.7-2.1,7.3-5,7.6-8.7c0.4-7-6.9-13.3-15.1-16.1
		c-3.8-1.3-8.2-1.7-12.2-0.7c-5.2,1.2-6.6,4.6-10.1,7.2c-3.5,2.6-6.8,4.5-11.6,5.3c-5.7,0.9-11.3-1-15.8-3.5c-2.4-1.3-4.5-3-6.7-4.5
		c9.2,0.8,21.5,2.3,26.7-5.5c4.2-6.2-1.2-13.1,3.2-19.4c5.6-8.1,20.7-2.2,28.2,0.8C71.1,64.1,79.7,71.6,91,67.9z"/>
</g>
<path fill="#333333" d="M159.3,75.4l2.1-4.1c0.1-0.1,0.1-0.2,0.2-0.4c0.7-0.9,4.1-5.4,4.8-6.3c0.7-0.9,1-6.4,1-7.7
	c0-0.2,0-0.4-0.1-0.6l-1-3.7c-0.1-0.4-0.4-0.8-0.8-1.1l-3-1.9c-0.3-0.2-0.7-0.3-1.1-0.3l-4.2,0.2c-0.3,0-0.5,0.1-0.8,0.2
	c-0.9,0.5-3.3,1.9-4.5,2.9c-1.6,1.3-3.7,6.7-3.4,8c0.2,0.8-0.6,5.1-1.2,8c-0.3,1.3-1.9,1.9-2.9,1.1l-5.8-4.6c0,0-0.1-0.1-0.1-0.1
	l-2.9-2.7c-0.1-0.1-0.3-0.3-0.3-0.4l-9.8-17.3c-0.1-0.2-0.2-0.4-0.2-0.6l-2.5-16.5c0-0.1,0-0.2-0.1-0.3l-2.4-7
	c0-0.1-0.1-0.2-0.1-0.3l-3.2-5.9c0-0.1-0.1-0.1-0.1-0.2l-2.6-6.7h1.6L114,5.1c-1.2-1.4-3.5-0.4-3.3,1.4l0.5,4.6l0.8-3.6l2.6,6.4
	c0.2,0.6,0.2,1.2-0.2,1.7l-1.6,2.4c-0.2,0.3-0.3,0.6-0.3,1c0,1.6-0.2,6.3,0.3,6.5c0.4,0.2,2.6,2.9,3.3,3.7c0.1,0.1,0.2,0.3,0.3,0.5
	l1.3,3.3c0.1,0.2,0.1,0.4,0.1,0.6L118,47c0,0.2,0,0.4,0.1,0.6l2.7,6.8c0,0.1,0.1,0.2,0.1,0.2L128,67c0.1,0.1,0.1,0.2,0.2,0.4
	l2.5,8.2c0,0.1,0,0.1,0.1,0.2l2.5,5.9l1.5,4c0,0.1,0.1,0.2,0.1,0.3l1.2,6c0,0.1,0,0.1,0,0.2l0.8,8.3c0,0.1,0,0.1,0,0.2v2
	c0,0.3-0.1,0.6-0.2,0.9l-2.6,5c-0.1,0.2-0.2,0.4-0.2,0.6l-2.2,13.5c0,0.1,0,0.1,0,0.2l-2.2,8c0,0.1,0,0.2-0.1,0.3l-0.3,3.1
	c-0.1,0.9,0.6,1.8,1.5,2l0.4,0.1c0.9,0.2,1.5,0.9,1.5,1.8l-0.4,18.8l-0.4,12.3l-0.7,7.9c-0.1,0.8-0.7,1.5-1.5,1.6l-3.4,0.7
	c-0.1,0-0.3,0.1-0.4,0.1l-4.2,2l-0.3,1.6l59.2,0.6c1,0,1.9-0.8,1.9-1.8l0.2-35c0-0.6-0.3-1.1-0.7-1.5l-2-1.6l-2.4-0.5v-2.5
	c0,0-0.1-0.1-0.2-2c-0.2-3.5,1.6-4.6,2.9-4.9c0.9-0.2,1.5-1,1.4-1.9l-0.1-1.3c-0.1-1-0.9-1.7-1.9-1.7h0c-1.2,0.1-2.2-1.1-1.9-2.3
	l1.2-4.9c0-0.1,0.1-0.3,0.2-0.4l2.1-10.3c0.4-0.7,0.1-4-0.5-4.5c-1-1.1-1.3-3.1-3-5.3c-1-1.4-3.6-5.5-4.2-6.3
	c-0.1-0.1-1.6-2.1-1.7-2.2l-1.2-3l-1.1-2.4c-0.3-0.6-1.5-3.2-2.2-3.2l-5-3.7c-0.5,0-1.3-1-1.7-1.3l-1.4-1.6
	c-0.3-0.4-0.2-1.5-0.1-1.9 M155.3,176.1h-17.9l1.1-4.5l3.8-12.7l0.9-19.7l10.7,0.2c0,0,0.2,6,0.2,14.5c0,8.5,2,10.5,2,10.5l1.3,5.8
	L155.3,176.1z M178.3,172.3h-2.5l-2.9-4.7l-0.9-22.3l4.7,1.3l0.4,18.1L178.3,172.3z M173.4,126.5l-5.6,1.1v5.1l-4.7,3.8l-0.2-1.6
	l1.5-11.3l-0.9-5.8l-1.6-6l-1-5l-0.1-14.1l3.3,2.8l8.8,11.1c1.2,1.5,1.7,4.5,1.3,6.4L173.4,126.5z"/>
</svg>
