<?xml version="1.0" encoding="utf-8"?>
<!-- Generator: Adobe Illustrator 18.1.0, SVG Export Plug-In . SVG Version: 6.00 Build 0)  -->
<!DOCTYPE svg PUBLIC "-//W3C//DTD SVG 1.1//EN" "http://www.w3.org/Graphics/SVG/1.1/DTD/svg11.dtd">
<svg version="1.1" id="Layer_1" xmlns="http://www.w3.org/2000/svg" xmlns:xlink="http://www.w3.org/1999/xlink" x="0px" y="0px"
	 viewBox="0 0 228.7 295.3" enable-background="new 0 0 228.7 295.3" xml:space="preserve">
<g>
	<path fill="#FFFFFF" d="M131.5,135.4c6.5,15.9,28.9,15.8,40.4,8.1c15.3-10.2,11.7-34.6,7.1-50.8c11.5,4.1,27.4,11.9,30.2,27
		c2.8,14.9-4.8,29.9-9.6,43.2c-4.3,11.8-9.4,32.5,3.8,40.5c5.6,2.3,9.7-5.5,13.1-12.3s6.6-13.9,8.8-21.5
		c35.5,159-256,174.1-220.8,3.4c2.6-12.3,6.5-24.3,11-35.8c-0.5,15.9,1.5,32.8,10.9,45.1c8.1,10.6,24.1,15.7,27.2-2.4
		c2.7-16.2-6.5-33.4-8.2-49.1c-2.3-19.9-3.2-36.9,9.9-48.7c1.2,8.8,3.5,15.5,5.9,18.8c3.9,5.8,9.4,11.3,16.2,11.7
		c12.9,0.5,24.4-11.1,29.3-24.1c2.3-6,3-12.9,1-19.2c-2.3-8.1-8.6-10.3-13.5-15.7c-4.9-5.4-8.4-10.6-10-18.1
		c-1.8-8.9,1.6-17.8,6.1-24.9c2.3-3.8,5.4-7.1,8.2-10.6c-1.3,14.5-3.8,33.8,10.7,41.8c11.5,6.5,24.1-2.2,35.8,4.6
		c15,8.6,4.5,32.5-0.9,44.3C138.1,104.1,124.4,117.7,131.5,135.4z"/>
</g>
</svg>
